<svg id="Layer_1" viewBox="0 0 24 24" xmlns="http://www.w3.org/2000/svg" data-name="Layer 1"><path d="m17 1c-2.664 0-4.165 1.413-5 3.509-.835-2.096-2.336-3.509-5-3.509-5.287 0-6 5.561-6 11s.713 11 6 11c2.664 0 4.165-1.413 5-3.509.835 2.096 2.336 3.509 5 3.509 5.287 0 6-5.561 6-11s-.713-11-6-11zm-3.897 13c0-.92.155-1 .949-1s.948.08.948 1-.155 1-.948 1-.949-.08-.949-1zm-10 0c0-.92.155-1 .949-1s.949.08.949 1-.155 1-.949 1-.949-.08-.949-1zm3.897 7c-1.445 0-2.962-.391-3.638-4.047.215.032.444.047.689.047 1.957 0 2.949-1.01 2.949-3s-.992-3-2.949-3c-.387 0-.726.051-1.037.13.144-7.464 2.122-8.13 3.986-8.13 1.935 0 4 .695 4 9s-2.065 9-4 9zm10 0c-1.446 0-2.962-.391-3.638-4.048.215.032.445.048.69.048 1.956 0 2.948-1.01 2.948-3s-.992-3-2.948-3c-.388 0-.726.051-1.038.13.144-7.464 2.122-8.13 3.986-8.13 1.936 0 4 .695 4 9s-2.064 9-4 9z"/></svg>